<?xml version="1.0" encoding="iso-8859-1"?>
<!-- Generator: Adobe Illustrator 19.0.0, SVG Export Plug-In . SVG Version: 6.00 Build 0)  -->
<svg version="1.1" id="Layer_1" xmlns="http://www.w3.org/2000/svg" xmlns:xlink="http://www.w3.org/1999/xlink" x="0px" y="0px"
	 viewBox="96 13.5 341 124" style="enable-background:new 96 13.5 341 124;" xml:space="preserve">
<g id="Subtitle_1_">
	<path id="XMLID_671_" style="fill:#FFFFFF;" d="M228.5,89.75h2.1c1,0,1.8,0.3,2.4,1s1,1.5,1,2.4s-0.3,1.8-1,2.4
		c-0.7,0.7-1.5,1-2.4,1H229v3.2c0,0.1-0.1,0.3-0.2,0.4c-0.1,0.1-0.2,0.2-0.4,0.2c-0.1,0-0.3-0.1-0.4-0.2c-0.1-0.1-0.2-0.2-0.2-0.4
		v-9.6c0-0.1,0.1-0.3,0.2-0.4C228.2,89.75,228.4,89.75,228.5,89.75z M229,90.75v4.8h1.6c0.7,0,1.2-0.2,1.7-0.7s0.7-1,0.7-1.7
		s-0.2-1.2-0.7-1.7s-1-0.7-1.7-0.7L229,90.75L229,90.75z"/>
	<path id="XMLID_668_" style="fill:#FFFFFF;" d="M244,99.25c-0.7,0.7-1.6,1.1-2.7,1.1s-1.9-0.4-2.6-1.1c-0.7-0.7-1.1-1.6-1.1-2.6
		s0.4-1.9,1.1-2.6c0.7-0.7,1.6-1.1,2.6-1.1s1.9,0.4,2.6,1.1c0.7,0.7,1.1,1.6,1.1,2.6v3.2c0,0.1-0.1,0.3-0.2,0.4
		c-0.1,0.1-0.2,0.2-0.4,0.2c-0.1,0-0.3-0.1-0.4-0.2c-0.1-0.1-0.2-0.2-0.2-0.4v-0.6H244z M241.3,93.95c-0.7,0-1.4,0.3-1.9,0.8
		s-0.8,1.1-0.8,1.9s0.3,1.4,0.8,1.9s1.1,0.8,1.9,0.8s1.4-0.3,1.9-0.8s0.8-1.1,0.8-1.9s-0.3-1.4-0.8-1.9
		C242.7,94.25,242.1,93.95,241.3,93.95z"/>
	<path id="XMLID_666_" style="fill:#FFFFFF;" d="M248.6,93.45c0-0.1,0.1-0.3,0.2-0.4c0.1-0.1,0.2-0.2,0.4-0.2s0.3,0.1,0.4,0.2
		c0.1,0.1,0.2,0.2,0.2,0.4v0.6c0.7-0.7,1.6-1.1,2.7-1.1c0.5,0,1,0.1,1.4,0.3c0.1,0,0.2,0.1,0.2,0.1c0.1,0.1,0.2,0.2,0.2,0.4
		s-0.1,0.3-0.2,0.4c-0.1,0.1-0.2,0.2-0.4,0.2c-0.1,0-0.2,0-0.2-0.1c-0.3-0.1-0.7-0.2-1-0.2c-0.7,0-1.4,0.3-1.9,0.8s-0.8,1.1-0.8,1.9
		v3.2c0,0.1-0.1,0.3-0.2,0.4c-0.1,0.1-0.2,0.2-0.4,0.2s-0.3-0.1-0.4-0.2c-0.1-0.1-0.2-0.2-0.2-0.4V93.45z"/>
	<path id="XMLID_664_" style="fill:#FFFFFF;" d="M257.4,93.45c0-0.1,0.1-0.3,0.2-0.4c0.1-0.1,0.2-0.2,0.4-0.2c0.2,0,0.3,0.1,0.4,0.2
		c0.1,0.1,0.2,0.2,0.2,0.4v0.6c0.7-0.7,1.6-1.1,2.7-1.1c0.5,0,1,0.1,1.4,0.3c0.1,0,0.2,0.1,0.2,0.1c0.1,0.1,0.2,0.2,0.2,0.4
		s-0.1,0.3-0.2,0.4c-0.1,0.1-0.2,0.2-0.4,0.2c-0.1,0-0.2,0-0.2-0.1c-0.3-0.1-0.7-0.2-1-0.2c-0.7,0-1.4,0.3-1.9,0.8s-0.8,1.1-0.8,1.9
		v3.2c0,0.1-0.1,0.3-0.2,0.4c-0.1,0.1-0.2,0.2-0.4,0.2c-0.2,0-0.3-0.1-0.4-0.2c-0.1-0.1-0.2-0.2-0.2-0.4V93.45z"/>
	<path id="XMLID_661_" style="fill:#FFFFFF;" d="M273.6,96.65c0,1-0.4,1.9-1.1,2.6s-1.6,1.1-2.6,1.1s-1.9-0.4-2.6-1.1
		s-1.1-1.6-1.1-2.6s0.4-1.9,1.1-2.6s1.6-1.1,2.6-1.1s1.9,0.4,2.6,1.1C273.3,94.75,273.6,95.55,273.6,96.65z M269.9,93.95
		c-0.7,0-1.4,0.3-1.9,0.8s-0.8,1.1-0.8,1.9s0.3,1.4,0.8,1.9s1.1,0.8,1.9,0.8c0.7,0,1.4-0.3,1.9-0.8s0.8-1.1,0.8-1.9
		s-0.3-1.4-0.8-1.9C271.3,94.25,270.7,93.95,269.9,93.95z"/>
	<path id="XMLID_659_" style="fill:#FFFFFF;" d="M280.9,99.25c0.1,0,0.3,0.1,0.4,0.2c0.1,0.1,0.2,0.2,0.2,0.4s-0.1,0.3-0.2,0.4
		c-0.1,0.1-0.2,0.2-0.4,0.2c-1.8,0-2.7-0.9-2.7-2.7v-3.7h-0.5c-0.1,0-0.3-0.1-0.4-0.2c-0.1-0.1-0.2-0.2-0.2-0.4s0.1-0.3,0.2-0.4
		c0.1-0.1,0.2-0.2,0.4-0.2h0.5v-2.7c0-0.1,0.1-0.3,0.2-0.4s0.2-0.2,0.4-0.2s0.3,0.1,0.4,0.2s0.2,0.2,0.2,0.4v2.7h1.1
		c0.1,0,0.3,0.1,0.4,0.2c0.1,0.1,0.2,0.2,0.2,0.4s-0.1,0.3-0.2,0.4c-0.1,0.1-0.2,0.2-0.4,0.2h-1.1v3.7
		C279.3,98.75,279.8,99.25,280.9,99.25z"/>
	<path id="XMLID_657_" style="fill:#FFFFFF;" d="M295.9,100.05l-3.8-7.5v7.3c0,0.1-0.1,0.3-0.2,0.4s-0.2,0.2-0.4,0.2
		s-0.3-0.1-0.4-0.2s-0.2-0.2-0.2-0.4v-9.6c0-0.1,0.1-0.3,0.2-0.4s0.2-0.2,0.4-0.2s0.4,0.1,0.5,0.3l4.3,8.6l4.3-8.6
		c0.1-0.2,0.3-0.3,0.5-0.3c0.1,0,0.3,0.1,0.4,0.2c0.1,0.1,0.2,0.2,0.2,0.4v9.6c0,0.1-0.1,0.3-0.2,0.4c-0.1,0.1-0.2,0.2-0.4,0.2
		c-0.1,0-0.3-0.1-0.4-0.2c-0.1-0.1-0.2-0.2-0.2-0.4v-7.3l-3.8,7.6c-0.1,0.2-0.2,0.3-0.5,0.3C296.2,100.35,296,100.25,295.9,100.05z"
		/>
	<path id="XMLID_654_" style="fill:#FFFFFF;" d="M311,98.55c0.1,0,0.3,0.1,0.4,0.2s0.2,0.2,0.2,0.4s-0.1,0.3-0.2,0.4
		c-0.7,0.6-1.5,0.9-2.4,0.9c-1,0-1.9-0.4-2.6-1.1c-0.7-0.7-1.1-1.6-1.1-2.6s0.4-1.9,1.1-2.6c0.7-0.7,1.6-1.1,2.6-1.1
		s1.9,0.4,2.6,1.1c0.7,0.7,1.1,1.6,1.1,2.6c0,0.1-0.1,0.3-0.2,0.4c-0.1,0.1-0.2,0.2-0.4,0.2h-5.8c0.1,0.5,0.3,1,0.7,1.3
		c0.5,0.5,1.1,0.8,1.9,0.8c0.7,0,1.2-0.2,1.7-0.6C310.7,98.55,310.8,98.55,311,98.55z M311.5,96.05c-0.1-0.5-0.3-1-0.7-1.3
		c-0.5-0.5-1.1-0.8-1.9-0.8s-1.4,0.3-1.9,0.8c-0.4,0.4-0.6,0.8-0.7,1.3H311.5z"/>
	<path id="XMLID_652_" style="fill:#FFFFFF;" d="M317.5,96.65c-0.4-0.2-0.7-0.3-0.8-0.5c-0.3-0.3-0.5-0.7-0.5-1.1s0.2-0.8,0.5-1.1
		c0.6-0.7,1.5-1,2.5-1c1.1,0,2.1,0.4,2.9,1.3c0.1,0.1,0.1,0.2,0.1,0.3c0,0.1-0.1,0.3-0.2,0.4c-0.1,0.1-0.2,0.2-0.4,0.2
		s-0.3,0-0.4-0.1c-0.1-0.1-0.2-0.2-0.2-0.2c-0.5-0.5-1.1-0.8-1.9-0.8s-1.3,0.2-1.8,0.7c-0.1,0.1-0.2,0.3-0.2,0.5s0.1,0.3,0.3,0.4
		l3.3,1.1c0.4,0.2,0.7,0.3,0.8,0.5c0.3,0.3,0.5,0.7,0.5,1.1s-0.2,0.8-0.5,1.1c-0.6,0.7-1.5,1-2.5,1c-1.1,0-2.1-0.4-2.9-1.3
		c-0.1-0.1-0.1-0.2-0.1-0.3c0-0.1,0.1-0.3,0.2-0.4c0.1-0.1,0.2-0.2,0.4-0.2c0.1,0,0.3,0,0.4,0.1c0.1,0.1,0.2,0.2,0.2,0.2
		c0.5,0.5,1.1,0.8,1.9,0.8s1.3-0.2,1.8-0.7c0.1-0.1,0.2-0.3,0.2-0.5s-0.1-0.3-0.3-0.4L317.5,96.65z"/>
	<path id="XMLID_650_" style="fill:#FFFFFF;" d="M327,96.65c-0.4-0.2-0.7-0.3-0.8-0.5c-0.3-0.3-0.5-0.7-0.5-1.1s0.2-0.8,0.5-1.1
		c0.6-0.7,1.5-1,2.5-1c1.1,0,2.1,0.4,2.9,1.3c0.1,0.1,0.1,0.2,0.1,0.3c0,0.1-0.1,0.3-0.2,0.4c-0.1,0.1-0.2,0.2-0.4,0.2
		s-0.3,0-0.4-0.1c-0.1-0.1-0.2-0.2-0.2-0.2c-0.5-0.5-1.1-0.8-1.9-0.8s-1.3,0.2-1.8,0.7c-0.1,0.1-0.2,0.3-0.2,0.5s0.1,0.3,0.3,0.4
		l3.3,1.1c0.4,0.2,0.7,0.3,0.8,0.5c0.3,0.3,0.5,0.7,0.5,1.1s-0.2,0.8-0.5,1.1c-0.6,0.7-1.5,1-2.5,1c-1.1,0-2.1-0.4-2.9-1.3
		c-0.1-0.1-0.1-0.2-0.1-0.3c0-0.1,0.1-0.3,0.2-0.4c0.1-0.1,0.2-0.2,0.4-0.2c0.2,0,0.3,0,0.4,0.1c0.1,0.1,0.2,0.2,0.2,0.2
		c0.5,0.5,1.1,0.8,1.9,0.8s1.3-0.2,1.8-0.7c0.1-0.1,0.2-0.3,0.2-0.5s-0.1-0.3-0.3-0.4L327,96.65z"/>
	<path id="XMLID_647_" style="fill:#FFFFFF;" d="M341.5,99.25c-0.7,0.7-1.6,1.1-2.7,1.1c-1,0-1.9-0.4-2.6-1.1s-1.1-1.6-1.1-2.6
		s0.4-1.9,1.1-2.6c0.7-0.7,1.6-1.1,2.6-1.1s1.9,0.4,2.6,1.1c0.7,0.7,1.1,1.6,1.1,2.6v3.2c0,0.1-0.1,0.3-0.2,0.4s-0.2,0.2-0.4,0.2
		s-0.3-0.1-0.4-0.2s-0.2-0.2-0.2-0.4v-0.6H341.5z M338.8,93.95c-0.7,0-1.4,0.3-1.9,0.8s-0.8,1.1-0.8,1.9s0.3,1.4,0.8,1.9
		s1.1,0.8,1.9,0.8s1.4-0.3,1.9-0.8s0.8-1.1,0.8-1.9s-0.3-1.4-0.8-1.9C340.2,94.25,339.6,93.95,338.8,93.95z"/>
	<path id="XMLID_644_" style="fill:#FFFFFF;" d="M352.5,99.25C352.4,99.25,352.4,99.25,352.5,99.25c-0.8,0.8-1.6,1.1-2.7,1.1
		c-1,0-1.9-0.4-2.6-1.1s-1.1-1.6-1.1-2.6s0.4-1.9,1.1-2.6c0.7-0.7,1.6-1.1,2.6-1.1s1.9,0.4,2.6,1.1c0.7,0.7,1.1,1.6,1.1,2.6v3.7
		c0,0.8-0.3,1.4-0.8,2c-0.8,0.8-1.7,1.2-2.8,1.2c-1.1,0-2-0.4-2.8-1.2c-0.3-0.3-0.5-0.6-0.7-0.9c-0.1-0.1-0.1-0.2-0.1-0.3
		c0-0.1,0.1-0.3,0.2-0.4c0.1-0.1,0.2-0.2,0.4-0.2s0.3,0.1,0.4,0.2c0,0,0.1,0.1,0.1,0.2c0.1,0.2,0.3,0.5,0.5,0.7
		c0.6,0.6,1.3,0.9,2.1,0.9s1.5-0.3,2.1-0.9c0.4-0.4,0.5-0.8,0.5-1.3v-1.1H352.5z M349.8,93.95c-0.7,0-1.4,0.3-1.9,0.8
		s-0.8,1.1-0.8,1.9s0.3,1.4,0.8,1.9s1.1,0.8,1.9,0.8c0.7,0,1.4-0.3,1.9-0.8s0.8-1.1,0.8-1.9s-0.3-1.4-0.8-1.9
		C351.2,94.25,350.5,93.95,349.8,93.95z"/>
	<path id="XMLID_641_" style="fill:#FFFFFF;" d="M362.8,98.55c0.1,0,0.3,0.1,0.4,0.2s0.2,0.2,0.2,0.4s-0.1,0.3-0.2,0.4
		c-0.7,0.6-1.5,0.9-2.4,0.9c-1,0-1.9-0.4-2.6-1.1s-1.1-1.6-1.1-2.6s0.4-1.9,1.1-2.6s1.6-1.1,2.6-1.1s1.9,0.4,2.6,1.1
		s1.1,1.6,1.1,2.6c0,0.1-0.1,0.3-0.2,0.4s-0.2,0.2-0.4,0.2h-5.8c0.1,0.5,0.3,1,0.7,1.3c0.5,0.5,1.1,0.8,1.9,0.8
		c0.7,0,1.2-0.2,1.7-0.6C362.6,98.55,362.7,98.55,362.8,98.55z M363.4,96.05c-0.1-0.5-0.3-1-0.7-1.3c-0.5-0.5-1.1-0.8-1.9-0.8
		c-0.7,0-1.4,0.3-1.9,0.8c-0.4,0.4-0.6,0.8-0.7,1.3H363.4z"/>
	<path id="XMLID_639_" style="fill:#FFFFFF;" d="M374.2,98.85c-0.1-0.1-0.1-0.2-0.1-0.3c0-0.1,0.1-0.3,0.2-0.4s0.2-0.2,0.4-0.2
		c0.2,0,0.3,0.1,0.5,0.2c0.1,0.1,0.1,0.2,0.2,0.2c0.4,0.5,0.9,0.7,1.4,0.8c0.6,0,1.1-0.1,1.5-0.5s0.7-0.9,0.7-1.4
		c0-0.6-0.1-1.1-0.5-1.6c-0.4-0.4-0.9-0.7-1.5-0.7c-0.7-0.1-1.3-0.4-1.8-0.9s-0.7-1.2-0.6-1.9c0.1-0.7,0.4-1.3,0.9-1.8
		c0.5-0.4,1.1-0.6,1.7-0.6c0.8,0,1.4,0.3,2,0.9c0.1,0.1,0.2,0.2,0.3,0.4c0.1,0.1,0.1,0.2,0.1,0.3c0,0.1-0.1,0.3-0.2,0.4
		s-0.2,0.2-0.4,0.2c-0.2,0-0.3-0.1-0.4-0.2s-0.2-0.2-0.2-0.3c-0.3-0.3-0.6-0.5-1.1-0.6c-0.4,0-0.8,0.1-1.2,0.4
		c-0.3,0.3-0.5,0.6-0.6,1.1c0,0.4,0.1,0.8,0.4,1.2c0.3,0.3,0.6,0.5,1.1,0.6c0.9,0.1,1.6,0.4,2.2,1.1c0.5,0.6,0.8,1.3,0.8,2
		c0,0.1,0,0.2,0,0.3c-0.1,0.9-0.4,1.6-1.1,2.2c-0.6,0.5-1.3,0.8-2,0.8c-1,0-1.8-0.4-2.5-1.1C374.4,99.15,374.3,99.05,374.2,98.85z"
		/>
	<path id="XMLID_636_" style="fill:#FFFFFF;" d="M389.4,98.55c0.1,0,0.3,0.1,0.4,0.2s0.2,0.2,0.2,0.4s-0.1,0.3-0.2,0.4
		c-0.7,0.6-1.5,0.9-2.4,0.9c-1,0-1.9-0.4-2.6-1.1s-1.1-1.6-1.1-2.6s0.4-1.9,1.1-2.6s1.6-1.1,2.6-1.1s1.9,0.4,2.6,1.1
		s1.1,1.6,1.1,2.6c0,0.1-0.1,0.3-0.2,0.4s-0.2,0.2-0.4,0.2h-5.8c0.1,0.5,0.3,1,0.7,1.3c0.5,0.5,1.1,0.8,1.9,0.8
		c0.7,0,1.2-0.2,1.7-0.6C389.2,98.55,389.3,98.55,389.4,98.55z M390,96.05c-0.1-0.5-0.3-1-0.7-1.3c-0.5-0.5-1.1-0.8-1.9-0.8
		c-0.7,0-1.4,0.3-1.9,0.8c-0.4,0.4-0.6,0.8-0.7,1.3H390z"/>
	<path id="XMLID_634_" style="fill:#FFFFFF;" d="M394.6,93.45c0-0.1,0.1-0.3,0.2-0.4s0.2-0.2,0.4-0.2s0.3,0.1,0.4,0.2
		s0.2,0.2,0.2,0.4v0.6c0.7-0.7,1.6-1.1,2.7-1.1c0.5,0,1,0.1,1.4,0.3c0.1,0,0.2,0.1,0.2,0.1c0.1,0.1,0.2,0.2,0.2,0.4
		s-0.1,0.3-0.2,0.4s-0.2,0.2-0.4,0.2c-0.1,0-0.2,0-0.2-0.1c-0.3-0.1-0.7-0.2-1-0.2c-0.7,0-1.4,0.3-1.9,0.8s-0.8,1.1-0.8,1.9v3.2
		c0,0.1-0.1,0.3-0.2,0.4s-0.2,0.2-0.4,0.2s-0.3-0.1-0.4-0.2s-0.2-0.2-0.2-0.4L394.6,93.45L394.6,93.45z"/>
	<path id="XMLID_632_" style="fill:#FFFFFF;" d="M407.2,100.15c-0.1,0.1-0.2,0.1-0.4,0.1s-0.3-0.1-0.4-0.2l-0.1-0.1l-2.9-6.4
		c0-0.1,0-0.1,0-0.2s0.1-0.3,0.2-0.4s0.2-0.2,0.4-0.2s0.3,0.1,0.4,0.2l0.1,0.1l2.4,5.3l2.4-5.3c0-0.1,0.1-0.1,0.1-0.1
		c0.1-0.1,0.2-0.2,0.4-0.2s0.3,0.1,0.4,0.2s0.2,0.2,0.2,0.4c0,0.1,0,0.1,0,0.2l-2.9,6.4C407.3,100.15,407.3,100.15,407.2,100.15z"/>
	<path id="XMLID_629_" style="fill:#FFFFFF;" d="M415.5,91.35c0,0.2-0.1,0.3-0.2,0.5c-0.1,0.1-0.3,0.2-0.5,0.2s-0.3-0.1-0.5-0.2
		c-0.1-0.1-0.2-0.3-0.2-0.5s0.1-0.3,0.2-0.5c0.1-0.1,0.3-0.2,0.5-0.2s0.3,0.1,0.5,0.2S415.5,91.15,415.5,91.35z M414.3,93.45
		c0-0.1,0.1-0.3,0.2-0.4s0.2-0.2,0.4-0.2s0.3,0.1,0.4,0.2s0.2,0.2,0.2,0.4v6.4c0,0.1-0.1,0.3-0.2,0.4s-0.2,0.2-0.4,0.2
		s-0.3-0.1-0.4-0.2s-0.2-0.2-0.2-0.4V93.45z"/>
	<path id="XMLID_623_" style="fill:#FFFFFF;" d="M425.2,98.55c0.1,0,0.3,0.1,0.4,0.2s0.2,0.2,0.2,0.4s-0.1,0.3-0.2,0.4
		c-0.7,0.6-1.5,0.9-2.4,0.9c-1,0-1.9-0.4-2.6-1.1s-1.1-1.6-1.1-2.6s0.4-1.9,1.1-2.6s1.6-1.1,2.6-1.1c0.9,0,1.7,0.3,2.4,0.9
		c0.1,0.1,0.2,0.2,0.2,0.4c0,0.1-0.1,0.3-0.2,0.4s-0.2,0.2-0.4,0.2c-0.1,0-0.2,0-0.3-0.1c-0.5-0.4-1.1-0.7-1.7-0.7
		c-0.7,0-1.4,0.3-1.9,0.8s-0.8,1.1-0.8,1.9s0.3,1.4,0.8,1.9s1.1,0.8,1.9,0.8c0.7,0,1.2-0.2,1.7-0.7
		C425,98.55,425.1,98.55,425.2,98.55z"/>
	<path id="XMLID_616_" style="fill:#FFFFFF;" d="M435.1,98.55c0.1,0,0.3,0.1,0.4,0.2s0.2,0.2,0.2,0.4s-0.1,0.3-0.2,0.4
		c-0.7,0.6-1.5,0.9-2.4,0.9c-1,0-1.9-0.4-2.6-1.1s-1.1-1.6-1.1-2.6s0.4-1.9,1.1-2.6s1.6-1.1,2.6-1.1s1.9,0.4,2.6,1.1
		s1.1,1.6,1.1,2.6c0,0.1-0.1,0.3-0.2,0.4s-0.2,0.2-0.4,0.2h-5.8c0.1,0.5,0.3,1,0.7,1.3c0.5,0.5,1.1,0.8,1.9,0.8
		c0.7,0,1.2-0.2,1.7-0.6C434.9,98.55,435,98.55,435.1,98.55z M435.7,96.05c-0.1-0.5-0.3-1-0.7-1.3c-0.5-0.5-1.1-0.8-1.9-0.8
		c-0.7,0-1.4,0.3-1.9,0.8c-0.4,0.4-0.6,0.8-0.7,1.3H435.7z"/>
</g>
<g id="XMLID_567_">
	<path id="XMLID_613_" style="fill:#E6E6E6;" d="M229.7,47.55h7.1c3.2,0,5.9,1.1,8.1,3.4c2.3,2.3,3.4,5,3.4,8.1
		c0,3.2-1.1,5.9-3.4,8.1c-2.3,2.3-5,3.4-8.1,3.4h-5.3v10.6c0,0.5-0.2,0.9-0.5,1.3c-0.3,0.3-0.8,0.5-1.3,0.5s-0.9-0.2-1.3-0.5
		c-0.3-0.3-0.5-0.8-0.5-1.3v-31.8c0-0.5,0.2-0.9,0.5-1.3C228.8,47.75,229.2,47.55,229.7,47.55z M231.4,51.05v16h5.3
		c2.2,0,4.1-0.8,5.6-2.3c1.6-1.6,2.3-3.4,2.3-5.6s-0.8-4.1-2.3-5.6c-1.6-1.6-3.4-2.3-5.6-2.3h-5.3V51.05z"/>
	<path id="XMLID_610_" style="fill:#E6E6E6;" d="M273,79.25c-2.5,2.5-5.4,3.7-8.9,3.7c-3.4,0-6.3-1.2-8.8-3.6
		c-2.4-2.4-3.6-5.3-3.6-8.8c0-3.4,1.2-6.3,3.6-8.8c2.4-2.4,5.3-3.6,8.8-3.6c3.4,0,6.3,1.2,8.8,3.6c2.4,2.4,3.6,5.3,3.6,8.8v10.6
		c0,0.5-0.2,0.9-0.5,1.3c-0.3,0.3-0.8,0.5-1.3,0.5s-0.9-0.2-1.3-0.5c-0.3-0.3-0.5-0.8-0.5-1.3v-1.9H273z M264.2,61.75
		c-2.4,0-4.5,0.9-6.3,2.6s-2.6,3.8-2.6,6.3c0,2.4,0.9,4.5,2.6,6.3s3.8,2.6,6.3,2.6c2.4,0,4.5-0.9,6.3-2.6s2.6-3.8,2.6-6.3
		c0-2.4-0.9-4.5-2.6-6.3S266.6,61.75,264.2,61.75z"/>
	<path id="XMLID_606_" style="fill:#E6E6E6;" d="M280.1,59.95c0-0.5,0.2-0.9,0.5-1.3c0.3-0.3,0.8-0.5,1.3-0.5s0.9,0.2,1.3,0.5
		c0.3,0.3,0.5,0.8,0.5,1.3v1.9c2.5-2.5,5.4-3.7,8.9-3.7c1.7,0,3.3,0.3,4.8,0.9c0.3,0.1,0.5,0.3,0.7,0.5c0.3,0.4,0.5,0.8,0.5,1.3
		s-0.2,0.9-0.5,1.3c-0.3,0.3-0.8,0.5-1.3,0.5c-0.3,0-0.5-0.1-0.8-0.2c-1-0.4-2.2-0.7-3.5-0.7c-2.4,0-4.5,0.9-6.3,2.6
		c-1.8,1.7-2.6,3.8-2.6,6.3v10.6c0,0.5-0.2,0.9-0.5,1.3c-0.3,0.3-0.8,0.5-1.3,0.5s-0.9-0.2-1.3-0.5c-0.3-0.3-0.5-0.8-0.5-1.3v-21.3
		H280.1z"/>
	<path id="XMLID_602_" style="fill:#E6E6E6;" d="M301.4,59.95c0-0.5,0.2-0.9,0.5-1.3c0.3-0.3,0.8-0.5,1.3-0.5s0.9,0.2,1.3,0.5
		c0.3,0.3,0.5,0.8,0.5,1.3v1.9c2.5-2.5,5.4-3.7,8.9-3.7c1.7,0,3.3,0.3,4.8,0.9c0.3,0.1,0.5,0.3,0.7,0.5c0.3,0.4,0.5,0.8,0.5,1.3
		s-0.2,0.9-0.5,1.3c-0.3,0.3-0.8,0.5-1.3,0.5c-0.3,0-0.5-0.1-0.8-0.2c-1-0.4-2.2-0.7-3.5-0.7c-2.4,0-4.5,0.9-6.3,2.6
		c-1.8,1.7-2.6,3.8-2.6,6.3v10.6c0,0.5-0.2,0.9-0.5,1.3c-0.3,0.3-0.8,0.5-1.3,0.5s-0.9-0.2-1.3-0.5c-0.3-0.3-0.5-0.8-0.5-1.3v-21.3
		H301.4z"/>
	<path id="XMLID_599_" style="fill:#E6E6E6;" d="M347.4,70.55c0,3.4-1.2,6.3-3.6,8.8c-2.4,2.4-5.3,3.6-8.8,3.6
		c-3.4,0-6.3-1.2-8.8-3.6c-2.4-2.4-3.6-5.3-3.6-8.8c0-3.4,1.2-6.3,3.6-8.8c2.4-2.4,5.3-3.6,8.8-3.6c3.4,0,6.3,1.2,8.8,3.6
		C346.2,64.25,347.4,67.15,347.4,70.55z M335,61.75c-2.4,0-4.5,0.9-6.3,2.6c-1.7,1.7-2.6,3.8-2.6,6.3c0,2.4,0.9,4.5,2.6,6.3
		c1.7,1.7,3.8,2.6,6.3,2.6c2.4,0,4.5-0.9,6.3-2.6c1.7-1.7,2.6-3.8,2.6-6.3c0-2.4-0.9-4.5-2.6-6.3C339.6,62.55,337.5,61.75,335,61.75
		z"/>
	<path id="XMLID_568_" style="fill:#E6E6E6;" d="M363.4,79.45c0.5,0,0.9,0.2,1.3,0.5c0.3,0.3,0.5,0.8,0.5,1.3s-0.2,0.9-0.5,1.3
		c-0.3,0.3-0.8,0.5-1.3,0.5c-5.9,0-8.9-3-8.9-8.9v-12.4h-1.8c-0.5,0-0.9-0.2-1.3-0.5c-0.3-0.3-0.5-0.8-0.5-1.3s0.2-0.9,0.5-1.3
		c0.3-0.3,0.8-0.5,1.3-0.5h1.8v-8.9c0-0.5,0.2-0.9,0.5-1.3c0.3-0.3,0.8-0.5,1.3-0.5s0.9,0.2,1.3,0.5c0.3,0.3,0.5,0.8,0.5,1.3v8.9
		h3.6c0.5,0,0.9,0.2,1.3,0.5c0.3,0.3,0.5,0.8,0.5,1.3s-0.2,0.9-0.5,1.3c-0.3,0.3-0.8,0.5-1.3,0.5H358v12.4
		C358,77.65,359.8,79.45,363.4,79.45z"/>
</g>
<g id="XMLID_562_">
	<path id="XMLID_565_" style="fill:#FFFFFF;" d="M407.4,83.05h-6.3v-22.7c0-0.4-0.1-0.9-0.3-1.2c-0.2-0.4-0.4-0.7-0.7-1
		c-0.3-0.3-0.6-0.5-1-0.7s-0.8-0.2-1.2-0.2c-0.4,0-0.9,0.1-1.2,0.2c-0.4,0.2-0.7,0.4-1,0.7c-0.3,0.3-0.5,0.6-0.7,1s-0.2,0.8-0.2,1.2
		v22.7h-6.4v-22.7c0-0.4-0.1-0.9-0.2-1.2c-0.2-0.4-0.4-0.7-0.7-1c-0.3-0.3-0.6-0.5-1-0.7s-0.8-0.2-1.2-0.2c-0.4,0-0.9,0.1-1.2,0.2
		c-0.4,0.2-0.7,0.4-1,0.7c-0.3,0.3-0.5,0.6-0.7,1s-0.2,0.8-0.2,1.2v22.7h-6.4v-22.7c0-1.3,0.2-2.5,0.7-3.7s1.2-2.2,2-3s1.9-1.5,3-2
		c1.2-0.5,2.4-0.7,3.7-0.7c1.2,0,2.3,0.2,3.4,0.6s2.1,1,2.9,1.8c0.9-0.8,1.8-1.4,2.9-1.8s2.2-0.6,3.4-0.6c1.3,0,2.5,0.2,3.7,0.7
		s2.2,1.2,3,2c0.9,0.9,1.5,1.9,2,3c0.5,1.2,0.7,2.4,0.7,3.7v22.7H407.4z"/>
	<path id="XMLID_563_" style="fill:#FFFFFF;" d="M411.2,60.85c0-1.3,0.3-2.5,0.8-3.7s1.2-2.2,2-3s1.9-1.5,3-2
		c1.2-0.5,2.4-0.8,3.7-0.8h14.6v6.4h-14.6c-0.4,0-0.9,0.1-1.2,0.2c-0.4,0.2-0.7,0.4-1,0.7c-0.3,0.3-0.5,0.6-0.7,1s-0.2,0.8-0.2,1.2
		s0.1,0.9,0.2,1.3c0.2,0.4,0.4,0.7,0.7,1c0.3,0.3,0.6,0.5,1,0.7s0.8,0.2,1.2,0.2h6.4c1.3,0,2.5,0.2,3.7,0.7s2.2,1.2,3,2
		c0.9,0.9,1.5,1.9,2,3c0.5,1.2,0.7,2.4,0.7,3.7c0,1.3-0.2,2.5-0.7,3.7s-1.2,2.2-2,3c-0.9,0.9-1.9,1.5-3,2c-1.2,0.5-2.4,0.8-3.7,0.8
		H413v-6.4h14.1c0.4,0,0.9-0.1,1.2-0.2c0.4-0.2,0.7-0.4,1-0.7s0.5-0.6,0.7-1s0.2-0.8,0.2-1.2c0-0.4-0.1-0.9-0.2-1.2
		c-0.2-0.4-0.4-0.7-0.7-1c-0.3-0.3-0.6-0.5-1-0.7s-0.8-0.2-1.2-0.2h-6.4c-1.3,0-2.5-0.3-3.7-0.8s-2.2-1.2-3-2s-1.5-1.9-2-3
		C411.5,63.35,411.2,62.15,411.2,60.85z"/>
</g>
<path id="Body_3_" style="fill:#FFFFFF;" d="M188.7,30.45c-9.8-10.3-23.6-16.7-38.9-16.7c-29.6,0-53.6,24-53.6,53.6
	c0,21.2,12.3,39.5,30.1,48.2c9.1,12.3,23.4,20.6,39.6,21.7c-3.8-5-6.7-10.7-8.5-16.9c1.3-0.2,2.7-0.4,4-0.7
	c-7.6-9.6-12.2-21.9-12.2-35.4C149.2,58.55,165.9,36.95,188.7,30.45z"/>
<path id="Body_Shadow_1_" style="fill:#E6E6E6;" d="M96.2,66.45c0,0.3,0,0.6,0,0.9c0,21.2,12.3,39.5,30.1,48.2
	c9.1,12.3,23.4,20.6,39.6,21.7c-3.8-5-6.7-10.7-8.5-16.9c1.3-0.2,2.7-0.4,4-0.7c-3.3-4.1-6-8.7-8-13.7c-1.6,0.1-3.1,0.2-4.7,0.2
	C123.5,106.15,102.3,89.25,96.2,66.45z"/>
<path id="Low_1_" style="fill:#FFFFFF;" d="M193.5,83.35l-36.3-12.4c-1.3,4.6-2,9.4-2,14.4c0,9.5,2.5,18.4,6.8,26.1
	C176,106.75,187.3,96.55,193.5,83.35z"/>
<path id="High_1_" style="fill:#FFFFFF;" d="M203.4,67.35c0-12.4-4.2-23.8-11.3-32.8c-15,4.9-27.1,16.3-33,30.9l42.7,14.6
	C202.8,75.95,203.4,71.65,203.4,67.35z"/>
<path id="Low_Shadow_1_" style="fill:#E6E6E6;" d="M159.1,105.15c0.9,2.2,1.9,4.3,3,6.3c13.9-4.7,25.2-15,31.4-28.2h-0.2
	C185.4,94.45,173.2,102.45,159.1,105.15z"/>
<path id="High_Shadow_1_" style="fill:#E6E6E6;" d="M201.8,79.95c1-4.1,1.5-8.3,1.5-12.7c0-3-0.3-5.9-0.7-8.8
	c-0.7,7.1-2.9,13.7-6.1,19.7L201.8,79.95z"/>
<g id="Eye_2_">
	<circle id="Eye_White_1_" style="fill:#FFFFFF;" cx="134.5" cy="40.525" r="19.3"/>
	<g id="Eye_3_">
		<circle id="XMLID_554_" style="fill:#F2F2F2;" cx="134.5" cy="40.525" r="19.3"/>
		<path id="XMLID_553_" style="fill:#999999;" d="M147.5,41.325L147.5,41.325c-0.3,4.6-3,8.8-7.2,10.9l0,0c-4.2,2.1-9.1,1.8-13-0.8
			l0,0c-3.9-2.6-6.1-7-5.8-11.6l0,0c0.3-4.6,3-8.8,7.2-10.9l0,0c4.2-2.1,9.1-1.8,13,0.8l0,0C145.5,32.225,147.7,36.725,147.5,41.325
			z"/>
		<circle id="XMLID_550_" style="fill:#FFFFFF;" cx="131.1" cy="35.825" r="6.6"/>
	</g>
</g>
</svg>
