<?xml version="1.0" encoding="utf-8"?>
<!-- Generator: Adobe Illustrator 19.0.0, SVG Export Plug-In . SVG Version: 6.00 Build 0)  -->
<svg version="1.1" id="Layer_1" xmlns="http://www.w3.org/2000/svg" xmlns:xlink="http://www.w3.org/1999/xlink" x="0px" y="0px"
	 viewBox="0 0 341 139" style="enable-background:new 0 0 341 139;" xml:space="preserve">
<style type="text/css">
	.st0{fill:#DBDBDB;}
	.st1{fill:#F7931E;}
	.st2{opacity:0.65;}
	.st3{fill:#4CAF50;}
	.st4{fill:#3D8D40;}
	.st5{fill:#C67618;}
	.st6{fill:#FFFFFF;}
	.st7{fill:#333333;}
</style>
<g id="XMLID_53_">
	<ellipse id="Floor_Shadow_1_" class="st0" cx="53.8" cy="135.6" rx="38.9" ry="2.9"/>
	<g id="Subtitle_1_">
		<path id="XMLID_671_" class="st1" d="M132.5,111.7h2.1c1,0,1.8,0.3,2.4,1s1,1.5,1,2.4s-0.3,1.8-1,2.4c-0.7,0.7-1.5,1-2.4,1H133
			v3.2c0,0.1-0.1,0.3-0.2,0.4c-0.1,0.1-0.2,0.2-0.4,0.2c-0.1,0-0.3-0.1-0.4-0.2c-0.1-0.1-0.2-0.2-0.2-0.4v-9.6
			c0-0.1,0.1-0.3,0.2-0.4C132.2,111.7,132.4,111.7,132.5,111.7z M133,112.7v4.8h1.6c0.7,0,1.2-0.2,1.7-0.7c0.5-0.5,0.7-1,0.7-1.7
			c0-0.7-0.2-1.2-0.7-1.7c-0.5-0.5-1-0.7-1.7-0.7H133z"/>
		<path id="XMLID_668_" class="st1" d="M148,121.2c-0.7,0.7-1.6,1.1-2.7,1.1s-1.9-0.4-2.6-1.1c-0.7-0.7-1.1-1.6-1.1-2.6
			s0.4-1.9,1.1-2.6c0.7-0.7,1.6-1.1,2.6-1.1s1.9,0.4,2.6,1.1c0.7,0.7,1.1,1.6,1.1,2.6v3.2c0,0.1-0.1,0.3-0.2,0.4
			c-0.1,0.1-0.2,0.2-0.4,0.2c-0.1,0-0.3-0.1-0.4-0.2c-0.1-0.1-0.2-0.2-0.2-0.4V121.2z M145.3,115.9c-0.7,0-1.4,0.3-1.9,0.8
			c-0.5,0.5-0.8,1.1-0.8,1.9s0.3,1.4,0.8,1.9c0.5,0.5,1.1,0.8,1.9,0.8s1.4-0.3,1.9-0.8c0.5-0.5,0.8-1.1,0.8-1.9s-0.3-1.4-0.8-1.9
			C146.7,116.2,146.1,115.9,145.3,115.9z"/>
		<path id="XMLID_666_" class="st1" d="M152.6,115.4c0-0.1,0.1-0.3,0.2-0.4c0.1-0.1,0.2-0.2,0.4-0.2s0.3,0.1,0.4,0.2
			c0.1,0.1,0.2,0.2,0.2,0.4v0.6c0.7-0.7,1.6-1.1,2.7-1.1c0.5,0,1,0.1,1.4,0.3c0.1,0,0.2,0.1,0.2,0.1c0.1,0.1,0.2,0.2,0.2,0.4
			s-0.1,0.3-0.2,0.4c-0.1,0.1-0.2,0.2-0.4,0.2c-0.1,0-0.2,0-0.2-0.1c-0.3-0.1-0.7-0.2-1-0.2c-0.7,0-1.4,0.3-1.9,0.8
			c-0.5,0.5-0.8,1.1-0.8,1.9v3.2c0,0.1-0.1,0.3-0.2,0.4c-0.1,0.1-0.2,0.2-0.4,0.2s-0.3-0.1-0.4-0.2c-0.1-0.1-0.2-0.2-0.2-0.4V115.4z
			"/>
		<path id="XMLID_664_" class="st1" d="M161.4,115.4c0-0.1,0.1-0.3,0.2-0.4c0.1-0.1,0.2-0.2,0.4-0.2s0.3,0.1,0.4,0.2
			c0.1,0.1,0.2,0.2,0.2,0.4v0.6c0.7-0.7,1.6-1.1,2.7-1.1c0.5,0,1,0.1,1.4,0.3c0.1,0,0.2,0.1,0.2,0.1c0.1,0.1,0.2,0.2,0.2,0.4
			s-0.1,0.3-0.2,0.4c-0.1,0.1-0.2,0.2-0.4,0.2c-0.1,0-0.2,0-0.2-0.1c-0.3-0.1-0.7-0.2-1-0.2c-0.7,0-1.4,0.3-1.9,0.8
			c-0.5,0.5-0.8,1.1-0.8,1.9v3.2c0,0.1-0.1,0.3-0.2,0.4c-0.1,0.1-0.2,0.2-0.4,0.2s-0.3-0.1-0.4-0.2c-0.1-0.1-0.2-0.2-0.2-0.4V115.4z
			"/>
		<path id="XMLID_661_" class="st1" d="M177.6,118.6c0,1-0.4,1.9-1.1,2.6c-0.7,0.7-1.6,1.1-2.6,1.1c-1,0-1.9-0.4-2.6-1.1
			c-0.7-0.7-1.1-1.6-1.1-2.6s0.4-1.9,1.1-2.6c0.7-0.7,1.6-1.1,2.6-1.1c1,0,1.9,0.4,2.6,1.1C177.3,116.7,177.6,117.5,177.6,118.6z
			 M173.9,115.9c-0.7,0-1.4,0.3-1.9,0.8c-0.5,0.5-0.8,1.1-0.8,1.9s0.3,1.4,0.8,1.9c0.5,0.5,1.1,0.8,1.9,0.8c0.7,0,1.4-0.3,1.9-0.8
			c0.5-0.5,0.8-1.1,0.8-1.9s-0.3-1.4-0.8-1.9C175.3,116.2,174.7,115.9,173.9,115.9z"/>
		<path id="XMLID_659_" class="st1" d="M184.9,121.2c0.1,0,0.3,0.1,0.4,0.2c0.1,0.1,0.2,0.2,0.2,0.4s-0.1,0.3-0.2,0.4
			c-0.1,0.1-0.2,0.2-0.4,0.2c-1.8,0-2.7-0.9-2.7-2.7v-3.7h-0.5c-0.1,0-0.3-0.1-0.4-0.2s-0.2-0.2-0.2-0.4s0.1-0.3,0.2-0.4
			c0.1-0.1,0.2-0.2,0.4-0.2h0.5v-2.7c0-0.1,0.1-0.3,0.2-0.4c0.1-0.1,0.2-0.2,0.4-0.2s0.3,0.1,0.4,0.2c0.1,0.1,0.2,0.2,0.2,0.4v2.7
			h1.1c0.1,0,0.3,0.1,0.4,0.2c0.1,0.1,0.2,0.2,0.2,0.4s-0.1,0.3-0.2,0.4s-0.2,0.2-0.4,0.2h-1.1v3.7
			C183.3,120.7,183.8,121.2,184.9,121.2z"/>
		<path id="XMLID_657_" class="st1" d="M199.9,122l-3.8-7.5v7.3c0,0.1-0.1,0.3-0.2,0.4c-0.1,0.1-0.2,0.2-0.4,0.2s-0.3-0.1-0.4-0.2
			c-0.1-0.1-0.2-0.2-0.2-0.4v-9.6c0-0.1,0.1-0.3,0.2-0.4c0.1-0.1,0.2-0.2,0.4-0.2c0.2,0,0.4,0.1,0.5,0.3l4.3,8.6l4.3-8.6
			c0.1-0.2,0.3-0.3,0.5-0.3c0.1,0,0.3,0.1,0.4,0.2c0.1,0.1,0.2,0.2,0.2,0.4v9.6c0,0.1-0.1,0.3-0.2,0.4c-0.1,0.1-0.2,0.2-0.4,0.2
			c-0.1,0-0.3-0.1-0.4-0.2c-0.1-0.1-0.2-0.2-0.2-0.4v-7.3l-3.8,7.6c-0.1,0.2-0.2,0.3-0.5,0.3C200.2,122.3,200,122.2,199.9,122z"/>
		<path id="XMLID_654_" class="st1" d="M215,120.5c0.1,0,0.3,0.1,0.4,0.2c0.1,0.1,0.2,0.2,0.2,0.4s-0.1,0.3-0.2,0.4
			c-0.7,0.6-1.5,0.9-2.4,0.9c-1,0-1.9-0.4-2.6-1.1c-0.7-0.7-1.1-1.6-1.1-2.6s0.4-1.9,1.1-2.6c0.7-0.7,1.6-1.1,2.6-1.1
			s1.9,0.4,2.6,1.1c0.7,0.7,1.1,1.6,1.1,2.6c0,0.1-0.1,0.3-0.2,0.4c-0.1,0.1-0.2,0.2-0.4,0.2h-5.8c0.1,0.5,0.3,1,0.7,1.3
			c0.5,0.5,1.1,0.8,1.9,0.8c0.7,0,1.2-0.2,1.7-0.6C214.7,120.5,214.8,120.5,215,120.5z M215.5,118c-0.1-0.5-0.3-1-0.7-1.3
			c-0.5-0.5-1.1-0.8-1.9-0.8s-1.4,0.3-1.9,0.8c-0.4,0.4-0.6,0.8-0.7,1.3H215.5z"/>
		<path id="XMLID_652_" class="st1" d="M221.5,118.6c-0.4-0.2-0.7-0.3-0.8-0.5c-0.3-0.3-0.5-0.7-0.5-1.1s0.2-0.8,0.5-1.1
			c0.6-0.7,1.5-1,2.5-1c1.1,0,2.1,0.4,2.9,1.3c0.1,0.1,0.1,0.2,0.1,0.3c0,0.1-0.1,0.3-0.2,0.4c-0.1,0.1-0.2,0.2-0.4,0.2
			s-0.3,0-0.4-0.1c-0.1-0.1-0.2-0.2-0.2-0.2c-0.5-0.5-1.1-0.8-1.9-0.8s-1.3,0.2-1.8,0.7c-0.1,0.1-0.2,0.3-0.2,0.5
			c0,0.2,0.1,0.3,0.3,0.4l3.3,1.1c0.4,0.2,0.7,0.3,0.8,0.5c0.3,0.3,0.5,0.7,0.5,1.1c0,0.4-0.2,0.8-0.5,1.1c-0.6,0.7-1.5,1-2.5,1
			c-1.1,0-2.1-0.4-2.9-1.3c-0.1-0.1-0.1-0.2-0.1-0.3c0-0.1,0.1-0.3,0.2-0.4c0.1-0.1,0.2-0.2,0.4-0.2c0.1,0,0.3,0,0.4,0.1
			c0.1,0.1,0.2,0.2,0.2,0.2c0.5,0.5,1.1,0.8,1.9,0.8s1.3-0.2,1.8-0.7c0.1-0.1,0.2-0.3,0.2-0.5c0-0.2-0.1-0.3-0.3-0.4L221.5,118.6z"
			/>
		<path id="XMLID_650_" class="st1" d="M231,118.6c-0.4-0.2-0.7-0.3-0.8-0.5c-0.3-0.3-0.5-0.7-0.5-1.1s0.2-0.8,0.5-1.1
			c0.6-0.7,1.5-1,2.5-1c1.1,0,2.1,0.4,2.9,1.3c0.1,0.1,0.1,0.2,0.1,0.3c0,0.1-0.1,0.3-0.2,0.4c-0.1,0.1-0.2,0.2-0.4,0.2
			s-0.3,0-0.4-0.1c-0.1-0.1-0.2-0.2-0.2-0.2c-0.5-0.5-1.1-0.8-1.9-0.8s-1.3,0.2-1.8,0.7c-0.1,0.1-0.2,0.3-0.2,0.5
			c0,0.2,0.1,0.3,0.3,0.4l3.3,1.1c0.4,0.2,0.7,0.3,0.8,0.5c0.3,0.3,0.5,0.7,0.5,1.1c0,0.4-0.2,0.8-0.5,1.1c-0.6,0.7-1.5,1-2.5,1
			c-1.1,0-2.1-0.4-2.9-1.3c-0.1-0.1-0.1-0.2-0.1-0.3c0-0.1,0.1-0.3,0.2-0.4c0.1-0.1,0.2-0.2,0.4-0.2s0.3,0,0.4,0.1
			c0.1,0.1,0.2,0.2,0.2,0.2c0.5,0.5,1.1,0.8,1.9,0.8s1.3-0.2,1.8-0.7c0.1-0.1,0.2-0.3,0.2-0.5c0-0.2-0.1-0.3-0.3-0.4L231,118.6z"/>
		<path id="XMLID_647_" class="st1" d="M245.5,121.2c-0.7,0.7-1.6,1.1-2.7,1.1c-1,0-1.9-0.4-2.6-1.1c-0.7-0.7-1.1-1.6-1.1-2.6
			s0.4-1.9,1.1-2.6c0.7-0.7,1.6-1.1,2.6-1.1c1,0,1.9,0.4,2.6,1.1c0.7,0.7,1.1,1.6,1.1,2.6v3.2c0,0.1-0.1,0.3-0.2,0.4
			c-0.1,0.1-0.2,0.2-0.4,0.2s-0.3-0.1-0.4-0.2c-0.1-0.1-0.2-0.2-0.2-0.4V121.2z M242.8,115.9c-0.7,0-1.4,0.3-1.9,0.8
			c-0.5,0.5-0.8,1.1-0.8,1.9s0.3,1.4,0.8,1.9c0.5,0.5,1.1,0.8,1.9,0.8s1.4-0.3,1.9-0.8c0.5-0.5,0.8-1.1,0.8-1.9s-0.3-1.4-0.8-1.9
			C244.2,116.2,243.6,115.9,242.8,115.9z"/>
		<path id="XMLID_644_" class="st1" d="M256.5,121.2C256.4,121.2,256.4,121.2,256.5,121.2c-0.8,0.8-1.6,1.1-2.7,1.1
			c-1,0-1.9-0.4-2.6-1.1c-0.7-0.7-1.1-1.6-1.1-2.6s0.4-1.9,1.1-2.6c0.7-0.7,1.6-1.1,2.6-1.1c1,0,1.9,0.4,2.6,1.1
			c0.7,0.7,1.1,1.6,1.1,2.6v3.7c0,0.8-0.3,1.4-0.8,2c-0.8,0.8-1.7,1.2-2.8,1.2s-2-0.4-2.8-1.2c-0.3-0.3-0.5-0.6-0.7-0.9
			c-0.1-0.1-0.1-0.2-0.1-0.3c0-0.1,0.1-0.3,0.2-0.4c0.1-0.1,0.2-0.2,0.4-0.2s0.3,0.1,0.4,0.2c0,0,0.1,0.1,0.1,0.2
			c0.1,0.2,0.3,0.5,0.5,0.7c0.6,0.6,1.3,0.9,2.1,0.9s1.5-0.3,2.1-0.9c0.4-0.4,0.5-0.8,0.5-1.3V121.2z M253.8,115.9
			c-0.7,0-1.4,0.3-1.9,0.8c-0.5,0.5-0.8,1.1-0.8,1.9s0.3,1.4,0.8,1.9c0.5,0.5,1.1,0.8,1.9,0.8c0.7,0,1.4-0.3,1.9-0.8
			c0.5-0.5,0.8-1.1,0.8-1.9s-0.3-1.4-0.8-1.9C255.2,116.2,254.5,115.9,253.8,115.9z"/>
		<path id="XMLID_641_" class="st1" d="M266.8,120.5c0.1,0,0.3,0.1,0.4,0.2c0.1,0.1,0.2,0.2,0.2,0.4s-0.1,0.3-0.2,0.4
			c-0.7,0.6-1.5,0.9-2.4,0.9c-1,0-1.9-0.4-2.6-1.1c-0.7-0.7-1.1-1.6-1.1-2.6s0.4-1.9,1.1-2.6c0.7-0.7,1.6-1.1,2.6-1.1
			c1,0,1.9,0.4,2.6,1.1c0.7,0.7,1.1,1.6,1.1,2.6c0,0.1-0.1,0.3-0.2,0.4c-0.1,0.1-0.2,0.2-0.4,0.2h-5.8c0.1,0.5,0.3,1,0.7,1.3
			c0.5,0.5,1.1,0.8,1.9,0.8c0.7,0,1.2-0.2,1.7-0.6C266.6,120.5,266.7,120.5,266.8,120.5z M267.4,118c-0.1-0.5-0.3-1-0.7-1.3
			c-0.5-0.5-1.1-0.8-1.9-0.8c-0.7,0-1.4,0.3-1.9,0.8c-0.4,0.4-0.6,0.8-0.7,1.3H267.4z"/>
		<path id="XMLID_639_" class="st1" d="M278.2,120.8c-0.1-0.1-0.1-0.2-0.1-0.3c0-0.1,0.1-0.3,0.2-0.4s0.2-0.2,0.4-0.2
			c0.2,0,0.3,0.1,0.5,0.2c0.1,0.1,0.1,0.2,0.2,0.2c0.4,0.5,0.9,0.7,1.4,0.8c0.6,0,1.1-0.1,1.5-0.5c0.4-0.4,0.7-0.9,0.7-1.4
			c0-0.6-0.1-1.1-0.5-1.6c-0.4-0.4-0.9-0.7-1.5-0.7c-0.7-0.1-1.3-0.4-1.8-0.9s-0.7-1.2-0.6-1.9c0.1-0.7,0.4-1.3,0.9-1.8
			c0.5-0.4,1.1-0.6,1.7-0.6c0.8,0,1.4,0.3,2,0.9c0.1,0.1,0.2,0.2,0.3,0.4c0.1,0.1,0.1,0.2,0.1,0.3c0,0.1-0.1,0.3-0.2,0.4
			s-0.2,0.2-0.4,0.2c-0.2,0-0.3-0.1-0.4-0.2s-0.2-0.2-0.2-0.3c-0.3-0.3-0.6-0.5-1.1-0.6c-0.4,0-0.8,0.1-1.2,0.4
			c-0.3,0.3-0.5,0.6-0.6,1.1c0,0.4,0.1,0.8,0.4,1.2c0.3,0.3,0.6,0.5,1.1,0.6c0.9,0.1,1.6,0.4,2.2,1.1c0.5,0.6,0.8,1.3,0.8,2
			c0,0.1,0,0.2,0,0.3c-0.1,0.9-0.4,1.6-1.1,2.2c-0.6,0.5-1.3,0.8-2,0.8c-1,0-1.8-0.4-2.5-1.1C278.4,121.1,278.3,121,278.2,120.8z"/>
		<path id="XMLID_636_" class="st1" d="M293.4,120.5c0.1,0,0.3,0.1,0.4,0.2c0.1,0.1,0.2,0.2,0.2,0.4s-0.1,0.3-0.2,0.4
			c-0.7,0.6-1.5,0.9-2.4,0.9c-1,0-1.9-0.4-2.6-1.1c-0.7-0.7-1.1-1.6-1.1-2.6s0.4-1.9,1.1-2.6c0.7-0.7,1.6-1.1,2.6-1.1
			c1,0,1.9,0.4,2.6,1.1c0.7,0.7,1.1,1.6,1.1,2.6c0,0.1-0.1,0.3-0.2,0.4c-0.1,0.1-0.2,0.2-0.4,0.2h-5.8c0.1,0.5,0.3,1,0.7,1.3
			c0.5,0.5,1.1,0.8,1.9,0.8c0.7,0,1.2-0.2,1.7-0.6C293.2,120.5,293.3,120.5,293.4,120.5z M294,118c-0.1-0.5-0.3-1-0.7-1.3
			c-0.5-0.5-1.1-0.8-1.9-0.8c-0.7,0-1.4,0.3-1.9,0.8c-0.4,0.4-0.6,0.8-0.7,1.3H294z"/>
		<path id="XMLID_634_" class="st1" d="M298.6,115.4c0-0.1,0.1-0.3,0.2-0.4c0.1-0.1,0.2-0.2,0.4-0.2s0.3,0.1,0.4,0.2
			c0.1,0.1,0.2,0.2,0.2,0.4v0.6c0.7-0.7,1.6-1.1,2.7-1.1c0.5,0,1,0.1,1.4,0.3c0.1,0,0.2,0.1,0.2,0.1c0.1,0.1,0.2,0.2,0.2,0.4
			s-0.1,0.3-0.2,0.4c-0.1,0.1-0.2,0.2-0.4,0.2c-0.1,0-0.2,0-0.2-0.1c-0.3-0.1-0.7-0.2-1-0.2c-0.7,0-1.4,0.3-1.9,0.8
			c-0.5,0.5-0.8,1.1-0.8,1.9v3.2c0,0.1-0.1,0.3-0.2,0.4c-0.1,0.1-0.2,0.2-0.4,0.2s-0.3-0.1-0.4-0.2c-0.1-0.1-0.2-0.2-0.2-0.4V115.4z
			"/>
		<path id="XMLID_632_" class="st1" d="M311.2,122.1c-0.1,0.1-0.2,0.1-0.4,0.1s-0.3-0.1-0.4-0.2c0,0-0.1-0.1-0.1-0.1l-2.9-6.4
			c0-0.1,0-0.1,0-0.2c0-0.1,0.1-0.3,0.2-0.4c0.1-0.1,0.2-0.2,0.4-0.2s0.3,0.1,0.4,0.2c0,0,0.1,0.1,0.1,0.1l2.4,5.3l2.4-5.3
			c0-0.1,0.1-0.1,0.1-0.1c0.1-0.1,0.2-0.2,0.4-0.2s0.3,0.1,0.4,0.2c0.1,0.1,0.2,0.2,0.2,0.4c0,0.1,0,0.1,0,0.2l-2.9,6.4
			C311.3,122.1,311.3,122.1,311.2,122.1z"/>
		<path id="XMLID_629_" class="st1" d="M319.5,113.3c0,0.2-0.1,0.3-0.2,0.5c-0.1,0.1-0.3,0.2-0.5,0.2c-0.2,0-0.3-0.1-0.5-0.2
			c-0.1-0.1-0.2-0.3-0.2-0.5s0.1-0.3,0.2-0.5c0.1-0.1,0.3-0.2,0.5-0.2c0.2,0,0.3,0.1,0.5,0.2C319.5,112.9,319.5,113.1,319.5,113.3z
			 M318.3,115.4c0-0.1,0.1-0.3,0.2-0.4c0.1-0.1,0.2-0.2,0.4-0.2s0.3,0.1,0.4,0.2c0.1,0.1,0.2,0.2,0.2,0.4v6.4c0,0.1-0.1,0.3-0.2,0.4
			c-0.1,0.1-0.2,0.2-0.4,0.2s-0.3-0.1-0.4-0.2c-0.1-0.1-0.2-0.2-0.2-0.4V115.4z"/>
		<path id="XMLID_623_" class="st1" d="M329.2,120.5c0.1,0,0.3,0.1,0.4,0.2c0.1,0.1,0.2,0.2,0.2,0.4s-0.1,0.3-0.2,0.4
			c-0.7,0.6-1.5,0.9-2.4,0.9c-1,0-1.9-0.4-2.6-1.1c-0.7-0.7-1.1-1.6-1.1-2.6s0.4-1.9,1.1-2.6c0.7-0.7,1.6-1.1,2.6-1.1
			c0.9,0,1.7,0.3,2.4,0.9c0.1,0.1,0.2,0.2,0.2,0.4c0,0.1-0.1,0.3-0.2,0.4c-0.1,0.1-0.2,0.2-0.4,0.2c-0.1,0-0.2,0-0.3-0.1
			c-0.5-0.4-1.1-0.7-1.7-0.7c-0.7,0-1.4,0.3-1.9,0.8c-0.5,0.5-0.8,1.1-0.8,1.9s0.3,1.4,0.8,1.9c0.5,0.5,1.1,0.8,1.9,0.8
			c0.7,0,1.2-0.2,1.7-0.7C329,120.5,329.1,120.5,329.2,120.5z"/>
		<path id="XMLID_616_" class="st1" d="M339.1,120.5c0.1,0,0.3,0.1,0.4,0.2c0.1,0.1,0.2,0.2,0.2,0.4s-0.1,0.3-0.2,0.4
			c-0.7,0.6-1.5,0.9-2.4,0.9c-1,0-1.9-0.4-2.6-1.1c-0.7-0.7-1.1-1.6-1.1-2.6s0.4-1.9,1.1-2.6c0.7-0.7,1.6-1.1,2.6-1.1
			c1,0,1.9,0.4,2.6,1.1c0.7,0.7,1.1,1.6,1.1,2.6c0,0.1-0.1,0.3-0.2,0.4c-0.1,0.1-0.2,0.2-0.4,0.2h-5.8c0.1,0.5,0.3,1,0.7,1.3
			c0.5,0.5,1.1,0.8,1.9,0.8c0.7,0,1.2-0.2,1.7-0.6C338.9,120.5,339,120.5,339.1,120.5z M339.7,118c-0.1-0.5-0.3-1-0.7-1.3
			c-0.5-0.5-1.1-0.8-1.9-0.8c-0.7,0-1.4,0.3-1.9,0.8c-0.4,0.4-0.6,0.8-0.7,1.3H339.7z"/>
	</g>
	<g id="Name_1_">
		<g id="XMLID_567_" class="st2">
			<path id="XMLID_613_" d="M133.7,69.5h7.1c3.2,0,5.9,1.1,8.1,3.4c2.3,2.3,3.4,5,3.4,8.1c0,3.2-1.1,5.9-3.4,8.1
				c-2.3,2.3-5,3.4-8.1,3.4h-5.3v10.6c0,0.5-0.2,0.9-0.5,1.3c-0.3,0.3-0.8,0.5-1.3,0.5c-0.5,0-0.9-0.2-1.3-0.5
				c-0.3-0.3-0.5-0.8-0.5-1.3V71.3c0-0.5,0.2-0.9,0.5-1.3C132.8,69.7,133.2,69.5,133.7,69.5z M135.4,73V89h5.3
				c2.2,0,4.1-0.8,5.6-2.3c1.6-1.6,2.3-3.4,2.3-5.6c0-2.2-0.8-4.1-2.3-5.6c-1.6-1.6-3.4-2.3-5.6-2.3H135.4z"/>
			<path id="XMLID_610_" d="M177,101.2c-2.5,2.5-5.4,3.7-8.9,3.7c-3.4,0-6.3-1.2-8.8-3.6c-2.4-2.4-3.6-5.3-3.6-8.8
				c0-3.4,1.2-6.3,3.6-8.8c2.4-2.4,5.3-3.6,8.8-3.6c3.4,0,6.3,1.2,8.8,3.6c2.4,2.4,3.6,5.3,3.6,8.8v10.6c0,0.5-0.2,0.9-0.5,1.3
				c-0.3,0.3-0.8,0.5-1.3,0.5c-0.5,0-0.9-0.2-1.3-0.5c-0.3-0.3-0.5-0.8-0.5-1.3V101.2z M168.2,83.7c-2.4,0-4.5,0.9-6.3,2.6
				s-2.6,3.8-2.6,6.3c0,2.4,0.9,4.5,2.6,6.3s3.8,2.6,6.3,2.6c2.4,0,4.5-0.9,6.3-2.6s2.6-3.8,2.6-6.3c0-2.4-0.9-4.5-2.6-6.3
				S170.6,83.7,168.2,83.7z"/>
			<path id="XMLID_606_" d="M184.1,81.9c0-0.5,0.2-0.9,0.5-1.3c0.3-0.3,0.8-0.5,1.3-0.5s0.9,0.2,1.3,0.5c0.3,0.3,0.5,0.8,0.5,1.3
				v1.9c2.5-2.5,5.4-3.7,8.9-3.7c1.7,0,3.3,0.3,4.8,0.9c0.3,0.1,0.5,0.3,0.7,0.5c0.3,0.4,0.5,0.8,0.5,1.3c0,0.5-0.2,0.9-0.5,1.3
				c-0.3,0.3-0.8,0.5-1.3,0.5c-0.3,0-0.5-0.1-0.8-0.2c-1-0.4-2.2-0.7-3.5-0.7c-2.4,0-4.5,0.9-6.3,2.6s-2.6,3.8-2.6,6.3v10.6
				c0,0.5-0.2,0.9-0.5,1.3c-0.3,0.3-0.8,0.5-1.3,0.5s-0.9-0.2-1.3-0.5c-0.3-0.3-0.5-0.8-0.5-1.3V81.9z"/>
			<path id="XMLID_602_" d="M205.4,81.9c0-0.5,0.2-0.9,0.5-1.3c0.3-0.3,0.8-0.5,1.3-0.5s0.9,0.2,1.3,0.5c0.3,0.3,0.5,0.8,0.5,1.3
				v1.9c2.5-2.5,5.4-3.7,8.9-3.7c1.7,0,3.3,0.3,4.8,0.9c0.3,0.1,0.5,0.3,0.7,0.5c0.3,0.4,0.5,0.8,0.5,1.3c0,0.5-0.2,0.9-0.5,1.3
				c-0.3,0.3-0.8,0.5-1.3,0.5c-0.3,0-0.5-0.1-0.8-0.2c-1-0.4-2.2-0.7-3.5-0.7c-2.4,0-4.5,0.9-6.3,2.6s-2.6,3.8-2.6,6.3v10.6
				c0,0.5-0.2,0.9-0.5,1.3c-0.3,0.3-0.8,0.5-1.3,0.5s-0.9-0.2-1.3-0.5c-0.3-0.3-0.5-0.8-0.5-1.3V81.9z"/>
			<path id="XMLID_599_" d="M251.4,92.5c0,3.4-1.2,6.3-3.6,8.8c-2.4,2.4-5.3,3.6-8.8,3.6c-3.4,0-6.3-1.2-8.8-3.6
				c-2.4-2.4-3.6-5.3-3.6-8.8c0-3.4,1.2-6.3,3.6-8.8c2.4-2.4,5.3-3.6,8.8-3.6c3.4,0,6.3,1.2,8.8,3.6
				C250.2,86.2,251.4,89.1,251.4,92.5z M239,83.7c-2.4,0-4.5,0.9-6.3,2.6c-1.7,1.7-2.6,3.8-2.6,6.3c0,2.4,0.9,4.5,2.6,6.3
				c1.7,1.7,3.8,2.6,6.3,2.6c2.4,0,4.5-0.9,6.3-2.6c1.7-1.7,2.6-3.8,2.6-6.3c0-2.4-0.9-4.5-2.6-6.3C243.6,84.5,241.5,83.7,239,83.7z
				"/>
			<path id="XMLID_568_" d="M267.4,101.4c0.5,0,0.9,0.2,1.3,0.5c0.3,0.3,0.5,0.8,0.5,1.3c0,0.5-0.2,0.9-0.5,1.3
				c-0.3,0.3-0.8,0.5-1.3,0.5c-5.9,0-8.9-3-8.9-8.9V83.7h-1.8c-0.5,0-0.9-0.2-1.3-0.5c-0.3-0.3-0.5-0.8-0.5-1.3s0.2-0.9,0.5-1.3
				c0.3-0.3,0.8-0.5,1.3-0.5h1.8v-8.9c0-0.5,0.2-0.9,0.5-1.3c0.3-0.3,0.8-0.5,1.3-0.5s0.9,0.2,1.3,0.5c0.3,0.3,0.5,0.8,0.5,1.3v8.9
				h3.6c0.5,0,0.9,0.2,1.3,0.5c0.3,0.3,0.5,0.8,0.5,1.3s-0.2,0.9-0.5,1.3c-0.3,0.3-0.8,0.5-1.3,0.5H262v12.4
				C262,99.6,263.8,101.4,267.4,101.4z"/>
		</g>
		<g id="XMLID_562_">
			<path id="XMLID_565_" class="st1" d="M311.4,105h-6.3V82.3c0-0.4-0.1-0.9-0.3-1.2c-0.2-0.4-0.4-0.7-0.7-1c-0.3-0.3-0.6-0.5-1-0.7
				c-0.4-0.2-0.8-0.2-1.2-0.2c-0.4,0-0.9,0.1-1.2,0.2c-0.4,0.2-0.7,0.4-1,0.7c-0.3,0.3-0.5,0.6-0.7,1c-0.2,0.4-0.2,0.8-0.2,1.2V105
				h-6.4V82.3c0-0.4-0.1-0.9-0.2-1.2c-0.2-0.4-0.4-0.7-0.7-1c-0.3-0.3-0.6-0.5-1-0.7c-0.4-0.2-0.8-0.2-1.2-0.2
				c-0.4,0-0.9,0.1-1.2,0.2c-0.4,0.2-0.7,0.4-1,0.7c-0.3,0.3-0.5,0.6-0.7,1c-0.2,0.4-0.2,0.8-0.2,1.2V105h-6.4V82.3
				c0-1.3,0.2-2.5,0.7-3.7c0.5-1.2,1.2-2.2,2-3s1.9-1.5,3-2c1.2-0.5,2.4-0.7,3.7-0.7c1.2,0,2.3,0.2,3.4,0.6c1.1,0.4,2.1,1,2.9,1.8
				c0.9-0.8,1.8-1.4,2.9-1.8c1.1-0.4,2.2-0.6,3.4-0.6c1.3,0,2.5,0.2,3.7,0.7c1.2,0.5,2.2,1.2,3,2c0.9,0.9,1.5,1.9,2,3
				c0.5,1.2,0.7,2.4,0.7,3.7V105z"/>
			<path id="XMLID_563_" class="st1" d="M315.2,82.8c0-1.3,0.3-2.5,0.8-3.7c0.5-1.2,1.2-2.2,2-3s1.9-1.5,3-2
				c1.2-0.5,2.4-0.8,3.7-0.8h14.6v6.4h-14.6c-0.4,0-0.9,0.1-1.2,0.2c-0.4,0.2-0.7,0.4-1,0.7c-0.3,0.3-0.5,0.6-0.7,1
				c-0.2,0.4-0.2,0.8-0.2,1.2s0.1,0.9,0.2,1.3c0.2,0.4,0.4,0.7,0.7,1c0.3,0.3,0.6,0.5,1,0.7c0.4,0.2,0.8,0.2,1.2,0.2h6.4
				c1.3,0,2.5,0.2,3.7,0.7c1.2,0.5,2.2,1.2,3,2c0.9,0.9,1.5,1.9,2,3c0.5,1.2,0.7,2.4,0.7,3.7c0,1.3-0.2,2.5-0.7,3.7
				c-0.5,1.2-1.2,2.2-2,3c-0.9,0.9-1.9,1.5-3,2c-1.2,0.5-2.4,0.8-3.7,0.8H317v-6.4h14.1c0.4,0,0.9-0.1,1.2-0.2
				c0.4-0.2,0.7-0.4,1-0.7s0.5-0.6,0.7-1c0.2-0.4,0.2-0.8,0.2-1.2c0-0.4-0.1-0.9-0.2-1.2c-0.2-0.4-0.4-0.7-0.7-1
				c-0.3-0.3-0.6-0.5-1-0.7c-0.4-0.2-0.8-0.2-1.2-0.2h-6.4c-1.3,0-2.5-0.3-3.7-0.8c-1.2-0.5-2.2-1.2-3-2s-1.5-1.9-2-3
				C315.5,85.3,315.2,84.1,315.2,82.8z"/>
		</g>
	</g>
	<g id="Body_2_">
		<g id="XMLID_555_">
			<path id="Body_3_" class="st3" d="M92.7,17.2C82.9,6.9,69.1,0.5,53.8,0.5c-29.6,0-53.6,24-53.6,53.6c0,21.2,12.3,39.5,30.1,48.2
				c9.1,12.3,23.4,20.6,39.6,21.7c-3.8-5-6.7-10.7-8.5-16.9c1.3-0.2,2.7-0.4,4-0.7c-7.6-9.6-12.2-21.9-12.2-35.4
				C53.2,45.3,69.9,23.7,92.7,17.2z"/>
			<path id="Body_Shadow_1_" class="st4" d="M0.2,53.2c0,0.3,0,0.6,0,0.9c0,21.2,12.3,39.5,30.1,48.2c9.1,12.3,23.4,20.6,39.6,21.7
				c-3.8-5-6.7-10.7-8.5-16.9c1.3-0.2,2.7-0.4,4-0.7c-3.3-4.1-6-8.7-8-13.7c-1.6,0.1-3.1,0.2-4.7,0.2C27.5,92.9,6.3,76,0.2,53.2z"/>
		</g>
		<path id="Low_1_" class="st1" d="M97.5,70.1L61.2,57.7c-1.3,4.6-2,9.4-2,14.4c0,9.5,2.5,18.4,6.8,26.1
			C80,93.5,91.3,83.3,97.5,70.1z"/>
		<path id="High_1_" class="st1" d="M107.4,54.1c0-12.4-4.2-23.8-11.3-32.8c-15,4.9-27.1,16.3-33,30.9l42.7,14.6
			C106.8,62.7,107.4,58.4,107.4,54.1z"/>
		<path id="Low_Shadow_1_" class="st5" d="M63.1,91.9c0.9,2.2,1.9,4.3,3,6.3c13.9-4.7,25.2-15,31.4-28.2L97.3,70
			C89.4,81.2,77.2,89.2,63.1,91.9z"/>
		<path id="High_Shadow_1_" class="st5" d="M105.8,66.7c1-4.1,1.5-8.3,1.5-12.7c0-3-0.3-5.9-0.7-8.8c-0.7,7.1-2.9,13.7-6.1,19.7
			L105.8,66.7z"/>
	</g>
	<g id="Eye_2_">
		<circle id="Eye_White_1_" class="st6" cx="38.5" cy="29.5" r="19.3"/>
		<g id="Eye_3_">
			<circle id="XMLID_554_" class="st6" cx="38.5" cy="29.5" r="19.3"/>
			<path id="XMLID_553_" class="st7" d="M51.5,30.3L51.5,30.3c-0.3,4.6-3,8.8-7.2,10.9l0,0c-4.2,2.1-9.1,1.8-13-0.8l0,0
				c-3.9-2.6-6.1-7-5.8-11.6l0,0c0.3-4.6,3-8.8,7.2-10.9l0,0c4.2-2.1,9.1-1.8,13,0.8l0,0C49.5,21.2,51.7,25.7,51.5,30.3z"/>
			<circle id="XMLID_550_" class="st6" cx="35.1" cy="24.8" r="6.6"/>
		</g>
	</g>
</g>
</svg>
